<?xml version="1.0" encoding="UTF-8"?>
<svg width="800" height="800" version="1.1" xmlns="http://www.w3.org/2000/svg">
 <defs>
  <style type="text/css">
    .dark { fill: #1e1e2e; }
    .fg { fill: #f5e0dc;  stroke: #f5e0dc; }
    .border { fill: none;  stroke-width: 5; }
    .logo { stroke-width: 35;  fill: none;  stroke-linejoin: round;  stroke-linecap: round; }
    .d { stroke-width: 15; }
  </style>
 </defs>
 <g transform="translate(-638.18 25.154)">
  <g transform="translate(638.18 -25.154)">
   <circle class="background" cx="400" cy="400" r="400" fill="#1e1e2e"/>
   <circle class="fg border" cx="400" cy="400" r="380"/>
  </g>
 </g>
 <path class="fg" d="m268.87 371.03h262.25c40.731 0 74.061 33.328 74.061 74.061 0 40.737-33.328 74.066-74.061 74.066h-262.25c-40.731 0-74.061-33.328-74.061-74.066-8e-3 -40.731 33.322-74.061 74.061-74.061m49.096 61.818h24.144v24.138h-24.144zm139.91 0h24.138v24.138h-24.138zm12.072-48.27c33.322 0 60.35 27.02 60.35 60.35 0 33.322-27.026 60.34-60.35 60.34-33.328 0-60.35-27.02-60.35-60.34 0-33.328 27.02-60.35 60.35-60.35zm-139.9 0c33.328 0 60.34 27.02 60.34 60.35 0 33.322-27.02 60.34-60.34 60.34-33.322 0-60.34-27.02-60.34-60.34-6e-3 -33.328 27.014-60.35 60.34-60.35zm100.52 240.37h42.03v-32.87h-42.03zm-51.59 0h42.022v-32.87h-42.022zm-51.595 0h42.03v-32.87h-42.03zm103.19-65.775c15.125-0.729 29.503-2.0136 42.03-3.848v27.191h-42.03zm-51.59 0.3864c13.87 0.4462 28.151 0.4462 42.022 0v22.956h-42.022zm-51.595-4.2344c12.524 1.8364 26.905 3.121 42.03 3.848v23.343h-42.03zm-37.891 27.191c6.0212-11.411 16.123-20.376 28.329-24.914v24.914zm-1.3464 42.432c-3.0095-5.4752-4.6866-11.49-4.6866-18.069 0-5.1325 0.74688-10.096 2.1411-14.8h32.22v32.87zm29.675 25.056c-9.0484-4.2822-16.758-9.4466-22.566-15.492h22.566zm51.59 13.822c-15.119-1.8603-29.503-5.1208-42.03-9.7954v-19.525h42.03zm51.585 0.9898c-13.864 1.1433-28.157 1.1433-42.022 0v-30.306h42.022zm51.6-10.781c-12.518 4.6746-26.905 7.9348-42.03 9.7953v-29.32h42.03zm32.129-19.529c-5.7999 6.0447-13.51 11.209-22.566 15.492v-15.492zm9.6562-42.428c1.3883 4.7044 2.1351 9.6679 2.1351 14.8 0 6.5765-1.671 12.598-4.6806 18.069h-29.675v-32.87zm-32.22-34.477c12.202 4.5391 22.301 13.504 28.323 24.914h-28.323zm-68.625-344.67c74.28 6.8095 133.14 69.054 134.56 144.72 40.958 7.9786 72.128 44.25 72.128 87.455 0 43.197-31.157 79.455-72.093 87.456v121.08c0 66.514-296.26 66.514-296.26 0v-121.09c-40.934-8.0027-72.082-44.256-72.082-87.445 0-43.202 31.163-79.46 72.113-87.455 1.4141-75.662 60.279-137.91 134.56-144.72l4.3261-102.74c0.31867-7.5387 1.6651-13.717 9.208-13.717 7.5448 0 8.8852 6.1864 9.2019 13.717z" fill-rule="evenodd" stroke-width=".50988"/>
</svg>
